<?xml version="1.0" standalone="no"?><!DOCTYPE svg PUBLIC "-//W3C//DTD SVG 1.1//EN" "http://www.w3.org/Graphics/SVG/1.1/DTD/svg11.dtd"><svg t="1650353225606" class="icon" viewBox="0 0 1024 1024" version="1.1" xmlns="http://www.w3.org/2000/svg" p-id="988" xmlns:xlink="http://www.w3.org/1999/xlink" width="200" height="200"><defs><style type="text/css">@font-face { font-family: feedback-iconfont; src: url("//at.alicdn.com/t/font_1031158_u69w8yhxdu.woff2?t=1630033759944") format("woff2"), url("//at.alicdn.com/t/font_1031158_u69w8yhxdu.woff?t=1630033759944") format("woff"), url("//at.alicdn.com/t/font_1031158_u69w8yhxdu.ttf?t=1630033759944") format("truetype"); }
</style></defs><path d="M917.308 170.682V149.356c0-39.89-15.5-77.388-43.718-105.59S807.872 0.016 768 0.016H256.016c-82.342 0-149.324 66.998-149.324 149.34v21.326h42.656v682.65H106.692v21.344c0 82.308 66.982 149.308 149.324 149.308H768c82.34 0 149.308-67 149.308-149.308v-21.344h-42.624V170.682h42.624z" fill="#E6E9ED" p-id="989"></path><path d="M149.348 170.682h725.336v682.65H149.348z" fill="#5D9CEC" p-id="990"></path><path d="M298.686 853.332h426.626v170.652H298.686z" fill="#FFCE54" p-id="991"></path><path d="M698.876 547.156c-8.124-100.56-45.308-163.042-75.09-197.746-34.156-39.826-76.996-64.576-111.792-64.576-16.39 0-35.156 5.468-54.31 15.828-20.296 10.968-40.108 27.11-57.31 46.686-29.828 33.952-67.108 95.544-75.232 196.042-4.968 61.262 9.124 110.356 41.874 145.856 49.154 53.278 123.402 57.434 144.98 57.434 28.406 0 99.512-5.438 146.012-55.902 32.024-34.72 45.774-83.032 40.868-143.622z" fill="#E6E9ED" p-id="992"></path><path d="M698.344 560.688c-3.876 0.25-95.402 6.25-145.742 67.246-26.094 31.594-36.25 71.464-30.204 118.496 32.796-1.438 94.012-10.562 135.606-55.652 29.622-32.094 43.59-75.844 41.652-130.122h-0.062l-1.25 0.032zM426.26 322.116a231.628 231.628 0 0 0-25.89 25.234c-29.828 33.952-67.108 95.544-75.232 196.042-1.11 13.672-1.266 26.766-0.468 39.23a139.9 139.9 0 0 0 26.592 2.562c23.468 0 45.28-5.75 64.826-17.122 25.906-15.062 46.702-39.406 61.78-72.42 28.936-63.31 11.172-108.574-8.842-135.402-14.72-19.75-32.78-32.202-42.766-38.124z" fill="#A0D468" p-id="993"></path><path d="M426.682 959.984h-42.67c-11.78 0-21.328-9.562-21.328-21.312 0-11.808 9.546-21.34 21.328-21.34h42.67a21.318 21.318 0 0 1 21.328 21.34c0 11.75-9.546 21.312-21.328 21.312zM533.336 959.984H490.68c-11.782 0-21.342-9.562-21.342-21.312 0-11.808 9.562-21.34 21.342-21.34h42.656c11.796 0 21.36 9.532 21.36 21.34 0 11.75-9.564 21.312-21.36 21.312zM640.004 959.984h-42.688c-11.75 0-21.312-9.562-21.312-21.312 0-11.808 9.562-21.34 21.312-21.34h42.688c11.782 0 21.312 9.532 21.312 21.34 0 11.75-9.53 21.312-21.312 21.312z" fill="#434A54" p-id="994"></path><path d="M661.316 106.684H362.684c-11.782 0-21.342-9.546-21.342-21.326 0-11.782 9.562-21.344 21.342-21.344h298.632c11.812 0 21.372 9.562 21.372 21.344 0 11.78-9.56 21.326-21.372 21.326z" fill="#CCD1D9" p-id="995"></path><path d="M831.996 170.682h42.688v678.9h-42.688zM149.348 170.682h42.67v678.9H149.348z" fill="#FFFFFF" opacity=".2" p-id="996"></path></svg>