<?xml version="1.0" standalone="no"?><!DOCTYPE svg PUBLIC "-//W3C//DTD SVG 1.1//EN" "http://www.w3.org/Graphics/SVG/1.1/DTD/svg11.dtd"><svg t="1650353210171" class="icon" viewBox="0 0 1024 1024" version="1.1" xmlns="http://www.w3.org/2000/svg" p-id="839" xmlns:xlink="http://www.w3.org/1999/xlink" width="200" height="200"><defs><style type="text/css">@font-face { font-family: feedback-iconfont; src: url("//at.alicdn.com/t/font_1031158_u69w8yhxdu.woff2?t=1630033759944") format("woff2"), url("//at.alicdn.com/t/font_1031158_u69w8yhxdu.woff?t=1630033759944") format("woff"), url("//at.alicdn.com/t/font_1031158_u69w8yhxdu.ttf?t=1630033759944") format("truetype"); }
</style></defs><path d="M908.62 772.93l-3.624-1.062c-52.904-14.188-70.81-27.876-94.342-36.782-83.528-31.844-105.246-54.778-110.808-65.59-0.218-0.406-0.344-0.812-0.532-1.218l-0.688-97.028-198.07-2.25-198.088 2.25-0.688 97.028c-0.172 0.406-0.328 0.812-0.532 1.218-5.562 10.812-27.28 33.746-110.808 65.59-23.532 8.906-41.436 22.594-94.326 36.782l-3.624 1.062c-48.138 15.938-80.544 60.558-80.544 110.964v140.09h977.204v-140.09c-0.002-50.406-32.408-95.026-80.53-110.964z" fill="#5D9CEC" p-id="840"></path><path d="M752.594 709.742c-6.468-3.312-12.218-6.468-17.282-9.5-1.688-1-3.312-2-4.812-2.938l-0.032-0.032c-0.718-0.468-1.468-0.902-2.156-1.372l-0.188-0.094a281.16 281.16 0 0 1-4-2.688c-0.062-0.062-0.156-0.124-0.25-0.188a154.316 154.316 0 0 0-1.562-1.094c-0.124-0.094-0.25-0.156-0.312-0.218-1.188-0.844-2.312-1.624-3.344-2.438-0.124-0.062-0.25-0.188-0.376-0.25-0.406-0.312-0.782-0.624-1.188-0.938-0.124-0.062-0.25-0.188-0.376-0.312-0.468-0.376-0.968-0.75-1.406-1.124-0.5 0.438-0.75 0.25-0.75-0.562-8.5-7-12.688-12.562-14.718-16.5-0.218-0.406-0.344-0.812-0.532-1.218l-0.688-97.028-198.07-2.25-198.088 2.25-0.688 97.028c-0.172 0.406-0.328 0.812-0.532 1.218-3.672 7.124-14.39 19.562-45.28 36.34 8.858 10.594 27.14 30.062 55.466 49.344 37.328 25.376 100.434 55.652 189.12 55.652 88.324 0 154.51-30.028 194.446-55.214 27.692-17.468 46.942-34.998 57.598-45.874z" fill="#DBAFA5" p-id="841"></path><path d="M775.404 383.536c0 178.588-170.276 342.924-274.85 342.924-104.606 0-274.866-164.336-274.866-342.924 0-178.588 123.058-296.412 274.866-296.412 151.792 0 274.85 117.824 274.85 296.412z" fill="#EAC6BB" p-id="842"></path><path d="M752.594 709.742c-17.344-8.876-29.218-16.622-37.282-23.184-9.844 9.188-24.75 21.59-44.498 33.934-50.874 31.624-108.154 47.718-170.26 47.718-61.748 0-116.762-15.906-163.526-47.156-22.514-15.094-37.608-30.34-45.592-39.372-6.936 6.562-17.968 14.624-35.466 24.152 8.858 10.594 27.14 30.062 55.466 49.344 37.328 25.376 100.434 55.652 189.12 55.652 88.324 0 154.51-30.028 194.446-55.214 27.686-17.468 46.936-34.998 57.592-45.874z" fill="#4A89DC" p-id="843"></path><path d="M521.868 21.33c0 11.764-9.548 21.312-21.312 21.312-11.782 0-21.312-9.546-21.312-21.312A21.3 21.3 0 0 1 500.556 0.018c11.764-0.002 21.312 9.53 21.312 21.312z" fill="#ED5564" p-id="844"></path><path d="M500.54 21.33c-153.964 0-283.616 126.98-283.616 283.616l-0.016 78.716h567.248l0.032-78.716c-0.002-156.636-129.686-283.616-283.648-283.616z" fill="#E6E9ED" p-id="845"></path><path d="M808.684 364.834s-57.964-109.058-308.128-109.058-308.148 109.058-308.148 109.058c-5.5 10.344-0.422 18.812 11.312 18.812h593.654c11.748 0 16.81-8.47 11.31-18.812z" fill="#ED5564" p-id="846"></path><path d="M805.808 360.318c-2.186 1.282-4.998 2.016-8.436 2.016H203.72c-3.422 0-6.266-0.734-8.452-2.016-1.984 2.876-2.86 4.516-2.86 4.516-5.5 10.344-0.422 18.812 11.312 18.812h593.654c11.748 0 16.81-8.468 11.31-18.812 0 0-0.876-1.642-2.876-4.516z" fill="#DA4453" p-id="847"></path><path d="M500.54 85.264c-35.312 0-63.936 28.624-63.936 63.936 0 35.31 28.624 63.95 63.936 63.95 35.326 0 63.964-28.64 63.964-63.95 0-35.312-28.638-63.936-63.964-63.936z m0 85.246c-11.75 0-21.312-9.546-21.312-21.31 0-11.75 9.562-21.312 21.312-21.312 11.764 0 21.328 9.562 21.328 21.312 0 11.764-9.564 21.31-21.328 21.31zM841.558 682.058c-93.996 0-170.494 76.496-170.494 170.492 0 94.028 76.498 170.496 170.494 170.496 94.028 0 170.496-76.468 170.496-170.496 0-93.996-76.468-170.492-170.496-170.492z" fill="#ED5564" p-id="848"></path><path d="M671.502 865.176c6.5 88.122 80.28 157.872 170.056 157.872 91.496 0 166.402-72.438 170.34-162.996l-340.396 5.124z" fill="#E6E9ED" p-id="849"></path><path d="M1009.93 879.614a171.606 171.606 0 0 0 2.124-27.062c0-5.624-0.25-11.218-0.812-16.75-28.124 5.968-90.124 16.75-169.684 16.75-72.872 0-135.684-9.406-169.682-16.624a170.95 170.95 0 0 0-0.812 16.624c0 9.218 0.75 18.25 2.156 27.062 33.342 6.532 93.216 15.562 168.338 15.562 75.186 0 134.996-9.032 168.372-15.562z" fill="#434A54" p-id="850"></path><path d="M884.184 873.864c0 23.562-19.062 42.624-42.624 42.624-23.532 0-42.624-19.062-42.624-42.624 0-23.532 19.092-42.624 42.624-42.624 23.562-0.002 42.624 19.092 42.624 42.624z" fill="#E6E9ED" p-id="851"></path><path d="M841.558 937.796c-35.25 0-63.936-28.684-63.936-63.934s28.686-63.934 63.936-63.934 63.936 28.684 63.936 63.934-28.686 63.934-63.936 63.934z m0-85.246c-11.75 0-21.312 9.562-21.312 21.312s9.562 21.312 21.312 21.312 21.312-9.562 21.312-21.312-9.562-21.312-21.312-21.312z" fill="#434A54" p-id="852"></path><path d="M841.558 682.058c-3.562 0-7.124 0.124-10.624 0.312 89.06 5.562 159.808 79.746 159.808 170.18s-70.748 164.652-159.808 170.184c3.5 0.188 7.062 0.312 10.624 0.312 94.028 0 170.496-76.468 170.496-170.496 0-93.996-76.468-170.492-170.496-170.492z" fill="#FFFFFF" opacity=".2" p-id="853"></path></svg>