<?xml version="1.0" standalone="no"?><!DOCTYPE svg PUBLIC "-//W3C//DTD SVG 1.1//EN" "http://www.w3.org/Graphics/SVG/1.1/DTD/svg11.dtd"><svg t="1650352760821" class="icon" viewBox="0 0 1024 1024" version="1.1" xmlns="http://www.w3.org/2000/svg" p-id="2156" xmlns:xlink="http://www.w3.org/1999/xlink" width="200" height="200"><defs><style type="text/css">@font-face { font-family: feedback-iconfont; src: url("//at.alicdn.com/t/font_1031158_u69w8yhxdu.woff2?t=1630033759944") format("woff2"), url("//at.alicdn.com/t/font_1031158_u69w8yhxdu.woff?t=1630033759944") format("woff"), url("//at.alicdn.com/t/font_1031158_u69w8yhxdu.ttf?t=1630033759944") format("truetype"); }
</style></defs><path d="M846.106 223.822c-18.312-43.03-44.404-81.84-77.59-115.404-33.406-33.78-72.156-60.374-115.186-79.028C608.394 9.89 560.866 0.016 511.992 0.016c-48.842 0-96.404 9.876-141.34 29.374-43.03 18.656-81.78 45.25-115.184 79.028-33.186 33.562-59.294 72.374-77.608 115.404-18.92 44.468-28.53 91.184-28.53 138.838 0 103.872 51.342 180.652 116.34 277.834 55.232 82.59 123.98 185.368 182.37 337.614 6.266 17.156 26.67 45.876 63.952 45.876 37.092 0 57.558-26.938 63.808-42.876l0.094-0.218c58.594-154.028 127.59-257.618 183.028-340.832 64.652-97.122 115.746-173.806 115.746-277.398 0-47.654-9.626-94.37-28.562-138.838z" fill="#ED5564" p-id="2157"></path><path d="M149.332 362.818c0.046 103.81 51.374 180.526 116.34 277.678 55.232 82.59 123.98 185.368 182.37 337.614 6.266 17.156 26.67 45.876 63.952 45.876 37.092 0 57.558-26.938 63.808-42.876l0.094-0.218c58.594-154.028 127.59-257.618 183.028-340.832 64.622-97.058 115.684-173.744 115.746-277.242H149.332z" fill="#E6E9ED" p-id="2158"></path><path d="M149.332 362.662c0 7.25 0.282 14.344 0.766 21.344h723.79c0.468-7 0.782-14.094 0.782-21.344 0-7.124-0.25-14.25-0.688-21.312H150.004a357.672 357.672 0 0 0-0.672 21.312z" fill="#434A54" p-id="2159"></path><path d="M639.988 362.662c0 70.686-57.312 127.996-127.996 127.996-70.686 0-127.996-57.31-127.996-127.996s57.31-127.996 127.996-127.996c70.684 0 127.996 57.31 127.996 127.996z" fill="#A0D468" p-id="2160"></path><path d="M511.992 234.666c-11.046 0-21.766 1.406-32 4.032 55.202 14.218 95.996 64.342 95.996 123.964 0 59.654-40.794 109.778-95.996 123.964a128.684 128.684 0 0 0 32 4.032c70.684 0 127.996-57.31 127.996-127.996s-57.312-127.996-127.996-127.996z" fill="#FFFFFF" opacity=".2" p-id="2161"></path><path d="M511.992 512c-82.342 0-149.324-66.998-149.324-149.34 0-82.34 66.982-149.308 149.324-149.308 82.34 0 149.306 66.966 149.306 149.308S594.332 512 511.992 512z m0-255.992c-58.81 0-106.668 47.842-106.668 106.652s47.858 106.684 106.668 106.684c58.808 0 106.684-47.874 106.684-106.684s-47.876-106.652-106.684-106.652z" fill="#434A54" p-id="2162"></path><path d="M511.992 746.648c-11.782 0-21.328 9.562-21.328 21.344v252.524c6.376 2.188 13.468 3.468 21.328 3.468 7.844 0 14.954-1.218 21.326-3.282V767.992c0-11.782-9.544-21.344-21.326-21.344z" fill="#CCD1D9" p-id="2163"></path><path d="M846.106 223.822c-18.312-43.03-44.404-81.84-77.59-115.404-33.406-33.78-72.156-60.374-115.186-79.028C608.394 9.89 560.866 0.016 511.992 0.016c-7.14 0-14.25 0.25-21.328 0.656 41.358 2.468 81.636 12.062 120.012 28.718 42.998 18.656 81.746 45.25 115.184 79.028 33.188 33.562 59.28 72.374 77.592 115.404 18.936 44.468 28.53 91.184 28.53 138.838 0 103.59-51.06 180.276-115.746 277.398-55.436 83.214-124.402 186.804-183.01 340.832l-0.078 0.218c-4.904 12.5-18.592 31.812-42.186 39.5 6.296 2.124 13.296 3.376 21.032 3.376 37.092 0 57.558-26.938 63.808-42.876l0.094-0.218c58.594-154.028 127.59-257.618 183.028-340.832 64.652-97.122 115.746-173.806 115.746-277.398-0.002-47.654-9.628-94.37-28.564-138.838z" fill="#FFFFFF" opacity=".2" p-id="2164"></path></svg>